<mxfile host="ad5c8048-352a-4377-827d-95a7057d4769" modified="2020-07-18T02:17:29.034Z" agent="5.0 (Windows NT 10.0; Win64; x64) AppleWebKit/537.36 (KHTML, like Gecko) Code/1.47.2 Chrome/78.0.3904.130 Electron/7.3.2 Safari/537.36" etag="CN3sbfp0B7koTBIH6Zgb" version="13.1.3">
    <diagram id="6hGFLwfOUW9BJ-s0fimq" name="Page-1">
        <mxGraphModel dx="520" dy="1150" grid="1" gridSize="10" guides="1" tooltips="1" connect="1" arrows="1" fold="1" page="1" pageScale="1" pageWidth="827" pageHeight="1169" math="0" shadow="0">
            <root>
                <mxCell id="0"/>
                <mxCell id="1" parent="0"/>
                <mxCell id="43" style="rounded=0;orthogonalLoop=1;jettySize=auto;html=1;entryX=0;entryY=0.5;entryDx=0;entryDy=0;edgeStyle=orthogonalEdgeStyle;" edge="1" parent="1" source="6" target="65">
                    <mxGeometry relative="1" as="geometry">
                        <mxPoint x="180" y="501.99652173913046" as="targetPoint"/>
                        <Array as="points">
                            <mxPoint x="140" y="502"/>
                            <mxPoint x="140" y="660"/>
                        </Array>
                    </mxGeometry>
                </mxCell>
                <mxCell id="6" value="&lt;span&gt;load balancer&lt;/span&gt;" style="rounded=0;whiteSpace=wrap;html=1;" vertex="1" parent="1">
                    <mxGeometry x="40" y="437" width="70" height="130" as="geometry"/>
                </mxCell>
                <mxCell id="17" value="" style="group" vertex="1" connectable="0" parent="1">
                    <mxGeometry x="170" y="210" width="180" height="260" as="geometry"/>
                </mxCell>
                <mxCell id="2" value="" style="rounded=0;whiteSpace=wrap;html=1;" vertex="1" parent="17">
                    <mxGeometry width="180" height="260" as="geometry"/>
                </mxCell>
                <mxCell id="3" value="auth" style="rounded=0;whiteSpace=wrap;html=1;" vertex="1" parent="17">
                    <mxGeometry width="41.53846153846153" height="260" as="geometry"/>
                </mxCell>
                <mxCell id="9" value="post" style="rounded=0;whiteSpace=wrap;html=1;" vertex="1" parent="17">
                    <mxGeometry x="71.99999999999999" y="28.69565217391306" width="80.3076923076923" height="28.695652173913043" as="geometry"/>
                </mxCell>
                <mxCell id="10" value="comment" style="rounded=0;whiteSpace=wrap;html=1;" vertex="1" parent="17">
                    <mxGeometry x="71.99999999999999" y="76.52173913043475" width="80.3076923076923" height="28.695652173913043" as="geometry"/>
                </mxCell>
                <mxCell id="14" value="NF" style="rounded=0;whiteSpace=wrap;html=1;" vertex="1" parent="17">
                    <mxGeometry x="71.23076923076923" y="124.3478260869565" width="80.3076923076923" height="28.695652173913043" as="geometry"/>
                </mxCell>
                <mxCell id="62" value="" style="group;fillColor=none;" vertex="1" connectable="0" parent="17">
                    <mxGeometry x="69.22999999999999" y="170" width="80" height="80" as="geometry"/>
                </mxCell>
                <mxCell id="60" value="session" style="rounded=0;whiteSpace=wrap;html=1;verticalAlign=top;fillColor=#FFB366;" vertex="1" parent="62">
                    <mxGeometry width="80" height="80" as="geometry"/>
                </mxCell>
                <mxCell id="61" value="user&lt;br&gt;42" style="ellipse;whiteSpace=wrap;html=1;aspect=fixed;fillColor=#009900;" vertex="1" parent="62">
                    <mxGeometry x="16.666666666666668" y="26.666666666666664" width="46.66666666666667" height="46.66666666666667" as="geometry"/>
                </mxCell>
                <mxCell id="35" style="edgeStyle=orthogonalEdgeStyle;rounded=0;orthogonalLoop=1;jettySize=auto;html=1;exitX=1;exitY=0.5;exitDx=0;exitDy=0;entryX=0;entryY=0.5;entryDx=0;entryDy=0;" edge="1" parent="1" source="6" target="3">
                    <mxGeometry relative="1" as="geometry">
                        <mxPoint x="100" y="297" as="targetPoint"/>
                        <Array as="points">
                            <mxPoint x="140" y="502"/>
                            <mxPoint x="140" y="340"/>
                        </Array>
                    </mxGeometry>
                </mxCell>
                <mxCell id="37" value="" style="shape=datastore;whiteSpace=wrap;html=1;" vertex="1" parent="1">
                    <mxGeometry x="400" y="310" width="400" height="360" as="geometry"/>
                </mxCell>
                <mxCell id="38" style="edgeStyle=orthogonalEdgeStyle;rounded=0;orthogonalLoop=1;jettySize=auto;html=1;exitX=1;exitY=0.5;exitDx=0;exitDy=0;entryX=0;entryY=0.5;entryDx=0;entryDy=0;" edge="1" parent="1" source="2" target="37">
                    <mxGeometry relative="1" as="geometry">
                        <Array as="points">
                            <mxPoint x="370" y="340"/>
                            <mxPoint x="370" y="490"/>
                        </Array>
                    </mxGeometry>
                </mxCell>
                <mxCell id="45" value="users" style="rounded=0;whiteSpace=wrap;html=1;" vertex="1" parent="1">
                    <mxGeometry x="430" y="460" width="60" height="50" as="geometry"/>
                </mxCell>
                <mxCell id="59" style="edgeStyle=orthogonalEdgeStyle;rounded=0;orthogonalLoop=1;jettySize=auto;html=1;entryX=0.5;entryY=1;entryDx=0;entryDy=0;" edge="1" parent="1" source="53" target="45">
                    <mxGeometry relative="1" as="geometry"/>
                </mxCell>
                <mxCell id="53" value="post" style="rounded=0;whiteSpace=wrap;html=1;" vertex="1" parent="1">
                    <mxGeometry x="570" y="567" width="60" height="50" as="geometry"/>
                </mxCell>
                <mxCell id="49" value="" style="edgeStyle=orthogonalEdgeStyle;rounded=0;orthogonalLoop=1;jettySize=auto;html=1;" edge="1" parent="1" source="46" target="48">
                    <mxGeometry relative="1" as="geometry"/>
                </mxCell>
                <mxCell id="50" value="" style="edgeStyle=orthogonalEdgeStyle;rounded=0;orthogonalLoop=1;jettySize=auto;html=1;" edge="1" parent="1" source="46" target="45">
                    <mxGeometry relative="1" as="geometry"/>
                </mxCell>
                <mxCell id="46" value="user_roles" style="rounded=0;whiteSpace=wrap;html=1;" vertex="1" parent="1">
                    <mxGeometry x="570" y="460" width="60" height="50" as="geometry"/>
                </mxCell>
                <mxCell id="48" value="roles" style="rounded=0;whiteSpace=wrap;html=1;" vertex="1" parent="1">
                    <mxGeometry x="710" y="460" width="60" height="50" as="geometry"/>
                </mxCell>
                <mxCell id="63" value="" style="group;fillColor=#60a917;strokeColor=#2D7600;fontColor=#ffffff;" vertex="1" connectable="0" parent="1">
                    <mxGeometry x="170" y="530" width="180" height="260" as="geometry"/>
                </mxCell>
                <mxCell id="64" value="" style="rounded=0;whiteSpace=wrap;html=1;" vertex="1" parent="63">
                    <mxGeometry width="180" height="260" as="geometry"/>
                </mxCell>
                <mxCell id="65" value="auth" style="rounded=0;whiteSpace=wrap;html=1;" vertex="1" parent="63">
                    <mxGeometry width="41.53846153846153" height="260" as="geometry"/>
                </mxCell>
                <mxCell id="66" value="post" style="rounded=0;whiteSpace=wrap;html=1;" vertex="1" parent="63">
                    <mxGeometry x="71.99999999999999" y="28.69565217391306" width="80.3076923076923" height="28.695652173913043" as="geometry"/>
                </mxCell>
                <mxCell id="67" value="comment" style="rounded=0;whiteSpace=wrap;html=1;" vertex="1" parent="63">
                    <mxGeometry x="71.99999999999999" y="76.52173913043475" width="80.3076923076923" height="28.695652173913043" as="geometry"/>
                </mxCell>
                <mxCell id="68" value="NF" style="rounded=0;whiteSpace=wrap;html=1;" vertex="1" parent="63">
                    <mxGeometry x="71.23076923076923" y="124.3478260869565" width="80.3076923076923" height="28.695652173913043" as="geometry"/>
                </mxCell>
                <mxCell id="69" value="" style="group;fillColor=none;" vertex="1" connectable="0" parent="63">
                    <mxGeometry x="69.22999999999999" y="170" width="80" height="80" as="geometry"/>
                </mxCell>
                <mxCell id="70" value="session" style="rounded=0;whiteSpace=wrap;html=1;verticalAlign=top;fillColor=#FFB366;" vertex="1" parent="69">
                    <mxGeometry width="80" height="80" as="geometry"/>
                </mxCell>
                <mxCell id="71" value="user&lt;br&gt;10" style="ellipse;whiteSpace=wrap;html=1;aspect=fixed;fillColor=#009900;" vertex="1" parent="69">
                    <mxGeometry x="16.666666666666668" y="26.666666666666664" width="46.66666666666667" height="46.66666666666667" as="geometry"/>
                </mxCell>
                <mxCell id="73" style="edgeStyle=orthogonalEdgeStyle;rounded=0;orthogonalLoop=1;jettySize=auto;html=1;exitX=1;exitY=0.5;exitDx=0;exitDy=0;" edge="1" parent="1" source="64" target="37">
                    <mxGeometry relative="1" as="geometry">
                        <Array as="points">
                            <mxPoint x="370" y="660"/>
                            <mxPoint x="370" y="490"/>
                        </Array>
                    </mxGeometry>
                </mxCell>
            </root>
        </mxGraphModel>
    </diagram>
</mxfile>